# xmcd
#
# Track frame offsets:
# 150
# 21892
# 43588
# 66547
# 90042
# 110361
# 127136
# 141396
# 160124
# 178759
# 196481
# 212054
# 237033
# 254118
#
# Disc length: 3611 seconds
#
#
# Revision: 0
# Processed by: cddbd v1.5.2PL0 Copyright (c) Steve Scherf et al.
# Submitted via: Nero 7, 11, 10, 0 
#
DISCID=cd0e190e
DTITLE=Cincinnati Kid - Cincinnati Kid
DYEAR=2000
DGENRE=Blues
TTITLE0=Cincinnati Kid
TTITLE1=Mojo 2000
TTITLE2=For Cryin' Out Loud
TTITLE3=Todo Tranquilo
TTITLE4=Heavens To Betsy
TTITLE5=Bovine Sublime
TTITLE6=Sweet On Diane
TTITLE7=Bringin' My Blues To Town
TTITLE8=Wood Is Good
TTITLE9=Got Shake Instead
TTITLE10=Get While The Gettin's Good
TTITLE11=Think It Over
TTITLE12=Cincinnati Kid (Radio Edit)
TTITLE13=Mojo 2000 (Radio Edit)
EXTD=
EXTT0=Cincinnati Kid
EXTT1=Mojo 2000
EXTT2=For Cryin' Out Loud
EXTT3=Todo Tranquilo
EXTT4=Heavens To Betsy
EXTT5=Bovine Sublime
EXTT6=Sweet On Diane
EXTT7=Bringin' My Blues To Town
EXTT8=Wood Is Good
EXTT9=Got Shake Instead
EXTT10=Get While The Gettin's Good
EXTT11=Think It Over
EXTT12=Cincinnati Kid (Radio Edit)
EXTT13=Mojo 2000 (Radio Edit)
PLAYORDER=
